<svg xmlns="http://www.w3.org/2000/svg" viewBox="0 0 1080 1080"><defs><style>.cls-1{font-size:130px;font-family:MADETOMMY, MADE TOMMY;}.cls-2{letter-spacing:-0.02em;}.cls-3{letter-spacing:0.01em;}.cls-4{letter-spacing:-0.01em;}.cls-5{letter-spacing:0em;}.cls-6{letter-spacing:-0.03em;}.cls-7{letter-spacing:-0.02em;}.cls-8{letter-spacing:-0.03em;}.cls-9{letter-spacing:-0.11em;}.cls-10{letter-spacing:-0.04em;}.cls-11,.cls-12{fill:#e94e1b;}.cls-11{opacity:0.05;}</style></defs><g id="Layer_2" data-name="Layer 2"><text class="cls-1" transform="translate(482.93 -599.33)">B<tspan class="cls-2" x="78.52" y="0">r</tspan><tspan x="122.72" y="0">and </tspan><tspan class="cls-3" x="383.62" y="0">A</tspan><tspan x="472.54" y="0">ss</tspan><tspan class="cls-4" x="590.32" y="0">e</tspan><tspan class="cls-5" x="663.51" y="0">ts</tspan><tspan x="0" y="156">- Logo Si</tspan><tspan class="cls-6" x="533.12" y="156">y</tspan><tspan x="599.03" y="156">ah, B</tspan><tspan class="cls-7" x="888.66" y="156">e</tspan><tspan class="cls-8" x="960.55" y="156">y</tspan><tspan class="cls-5" x="1026.46" y="156">az, 4 </tspan><tspan class="cls-2" x="1341.31" y="156">R</tspan><tspan class="cls-5" x="1416.45" y="156">enk</tspan><tspan x="0" y="312">- Logo + </tspan><tspan class="cls-9" x="535.85" y="312">Y</tspan><tspan x="607.61" y="312">azı Si</tspan><tspan class="cls-6" x="904.52" y="312">y</tspan><tspan x="970.43" y="312">ah, B</tspan><tspan class="cls-2" x="1260.06" y="312">e</tspan><tspan class="cls-6" x="1331.96" y="312">y</tspan><tspan x="1397.86" y="312">az, 4 </tspan><tspan class="cls-2" x="1712.72" y="312">R</tspan><tspan x="1787.86" y="312">enk</tspan><tspan x="0" y="468" xml:space="preserve">-  </tspan><tspan class="cls-4" x="130.13" y="468">S</tspan><tspan class="cls-10" x="201.5" y="468">V</tspan><tspan class="cls-5" x="284.05" y="468">G, PNG </tspan><tspan x="0" y="624"> </tspan></text><polygon class="cls-11" points="528.93 1011.6 125.53 786.69 132.45 324.88 542.77 87.98 946.17 312.89 939.25 774.7 528.93 1011.6"/><polygon class="cls-12" points="118.59 291.06 183.09 327.71 529.04 136.43 529.04 59.79 118.59 291.06"/><polygon class="cls-12" points="553.58 64.49 553.58 133.4 897.83 327.71 954.05 295.71 553.58 64.49"/><polygon class="cls-12" points="971.75 320.38 908.71 348.23 908.71 746.5 971.75 778.77 971.75 320.38"/><polygon class="cls-12" points="891.12 763.09 954.05 798.94 553.58 1020.79 553.58 951.96 891.12 763.09"/><polygon class="cls-12" points="529.04 1020.79 529.04 952.91 186.91 763.09 125.92 798.27 529.04 1020.79"/><polygon class="cls-12" points="108.25 778.77 165.5 749.89 165.5 350.2 108.25 320.38 108.25 778.77"/><polygon class="cls-12" points="489.19 217.25 489.19 404.68 850.78 457.75 850.78 343.3 489.19 217.25"/><path class="cls-12" d="M847.48,481.89V594L684.93,617s52.84-81.39-6.64-155.91Z"/><polygon class="cls-12" points="847.48 616.99 489.24 666.99 489.24 883.87 847.48 736.41 847.48 616.99"/><polygon class="cls-12" points="230.46 613.76 462.01 665.33 462.01 835.56 234.15 732.68 230.46 613.76"/><polygon class="cls-12" points="233.76 354.49 233.76 468.84 465.31 415.61 465.31 246.05 233.76 354.49"/><path class="cls-12" d="M523,441.7l-33.85-3.85s-178.65,44-250.31,51.21l-1.43,97.45,251.74,57,39.17-5.42c-7.66-8.52-40.21-46.6-39.17-104.05C490.07,485.08,514.82,451.86,523,441.7Z"/><ellipse class="cls-12" cx="603.64" cy="540.69" rx="84.59" ry="99.52"/></g></svg>